<svg width="24" height="24" viewBox="0 0 24 24" fill="none" xmlns="http://www.w3.org/2000/svg">
<path fill-rule="evenodd" clip-rule="evenodd" d="M14.4606 10.4005C13.6178 11.2434 12.5863 11.6706 11.3951 11.6706C10.2042 11.6706 9.1729 11.2433 8.32997 10.4006C7.48705 9.55783 7.05968 8.52649 7.05968 7.33517C7.05968 6.14413 7.48705 5.11279 8.32984 4.27001C9.17262 3.42723 10.2038 3 11.3951 3C12.5862 3 13.6175 3.42723 14.4605 4.26987C15.3034 5.11293 15.7306 6.14426 15.7306 7.33517C15.7306 8.52649 15.3034 9.55769 14.4606 10.4005ZM18.8352 15.7037C18.9076 16.1077 18.9567 16.4903 18.981 16.841C19.0051 17.1838 19.0173 17.5415 19.0174 17.9042C19.0174 18.8442 18.7187 19.605 18.1296 20.1656C17.5477 20.7193 16.7783 21 15.8423 21H7.17517C6.23914 21 5.46942 20.7191 4.88769 20.1656C4.29869 19.6046 4 18.8439 4 17.9043C4 17.5433 4.01208 17.1858 4.03598 16.8414C4.06029 16.4899 4.10945 16.1071 4.18182 15.7037C4.25488 15.2966 4.34895 14.912 4.46142 14.5603C4.57788 14.1965 4.73608 13.8376 4.9315 13.4936C5.1342 13.1367 5.37274 12.8259 5.64012 12.57C5.92013 12.302 6.26276 12.0868 6.65854 11.9302C7.05309 11.7739 7.49034 11.6946 7.95836 11.6946C8.14211 11.6946 8.31995 11.77 8.66272 11.9935C8.87709 12.1331 9.12428 12.2924 9.39743 12.467C9.63295 12.6172 9.95237 12.758 10.3465 12.8853C10.7318 13.0098 11.1225 13.073 11.5083 13.073C11.8941 13.073 12.2849 13.0098 12.6698 12.8853C13.0644 12.7578 13.3838 12.6171 13.6196 12.4668C13.8954 12.2906 14.1424 12.1313 14.3536 11.9936C14.6968 11.7702 14.8745 11.6948 15.0582 11.6948C15.5261 11.6948 15.9635 11.7739 16.3582 11.93C16.7543 12.087 17.0968 12.3022 17.3765 12.5698C17.644 12.8257 17.8824 13.1366 18.0854 13.4936C18.2809 13.8376 18.4391 14.1966 18.5555 14.5601C18.6681 14.9118 18.7621 15.2966 18.8352 15.7037Z" fill="white"/>
</svg>
