<svg width="132" height="26" viewBox="0 0 132 26" fill="none" xmlns="http://www.w3.org/2000/svg">
<g opacity="0.7">
<path d="M0.422852 0.873322H4.38285V20.144H0.422852V0.873322Z" fill="white"/>
<path d="M6.62568 13.5453C6.62021 12.1605 7.02581 10.8051 7.79114 9.65095C8.55648 8.49682 9.64714 7.59575 10.925 7.06202C12.2029 6.52815 13.6103 6.38562 14.9693 6.65242C16.3282 6.91922 17.5774 7.58322 18.5586 8.56055C19.5398 9.53775 20.2089 10.7843 20.4811 12.1421C20.7534 13.5 20.6165 14.9081 20.0878 16.1881C19.5591 17.468 18.6625 18.5624 17.5114 19.3323C16.3602 20.1023 15.0066 20.5133 13.6217 20.5133C12.7025 20.5239 11.7903 20.3509 10.9386 20.0048C10.0869 19.6587 9.31274 19.1463 8.66141 18.4976C8.00994 17.8488 7.49448 17.0767 7.14501 16.2264C6.79541 15.3761 6.61888 14.4647 6.62568 13.5453ZM16.6577 13.5453C16.6411 12.9484 16.449 12.3696 16.1054 11.8812C15.7617 11.3929 15.2817 11.0167 14.7254 10.7997C14.169 10.5827 13.5611 10.5344 12.9775 10.6611C12.3939 10.7877 11.8606 11.0835 11.4442 11.5116C11.0279 11.9396 10.7469 12.4809 10.6366 13.0679C10.5262 13.6547 10.5911 14.2611 10.8235 14.8112C11.0559 15.3613 11.4453 15.8307 11.9429 16.1607C12.4406 16.4907 13.0246 16.6667 13.6217 16.6667C14.0306 16.6776 14.4374 16.6036 14.8165 16.4495C15.1954 16.2953 15.5383 16.0644 15.8235 15.7712C16.1087 15.4779 16.3302 15.1287 16.4737 14.7456C16.6173 14.3625 16.6799 13.9539 16.6577 13.5453Z" fill="white"/>
<path d="M36.4002 6.94534V19.4787C36.4002 23.9133 32.9415 25.788 29.4309 25.788C28.1949 25.8805 26.9571 25.6308 25.8535 25.0664C24.7501 24.5019 23.8233 23.6444 23.1749 22.588L26.5535 20.6347C26.8261 21.1853 27.2603 21.6396 27.7981 21.9368C28.3359 22.2339 28.9517 22.3597 29.5629 22.2973C29.9535 22.3515 30.3514 22.3171 30.727 22.1967C31.1025 22.0763 31.4462 21.8729 31.7326 21.6019C32.019 21.3307 32.2407 20.9987 32.3815 20.6301C32.5222 20.2617 32.5782 19.8664 32.5455 19.4733V18.2667C32.0818 18.834 31.4917 19.2848 30.8222 19.5828C30.1527 19.8808 29.4229 20.0177 28.6909 19.9827C26.9493 19.9277 25.2974 19.1973 24.0849 17.9459C22.8723 16.6945 22.1943 15.0204 22.1943 13.278C22.1943 11.5356 22.8723 9.86147 24.0849 8.61014C25.2974 7.35867 26.9493 6.62827 28.6909 6.57334C29.4229 6.53827 30.1527 6.6752 30.8222 6.9732C31.4917 7.2712 32.0818 7.722 32.5455 8.28934V6.94267L36.4002 6.94534ZM32.5469 13.28C32.5735 12.6419 32.4085 12.0103 32.0731 11.4667C31.7378 10.9229 31.2474 10.4921 30.6651 10.2296C30.0829 9.96694 29.4354 9.88467 28.8059 9.9932C28.1765 10.1017 27.5939 10.3961 27.1331 10.8387C26.6725 11.2811 26.3547 11.8512 26.2207 12.4757C26.0869 13.1003 26.1429 13.7507 26.3818 14.3431C26.6206 14.9355 27.0313 15.4429 27.5609 15.8C28.0905 16.1571 28.7149 16.3475 29.3535 16.3467C29.7697 16.3757 30.1871 16.3173 30.5793 16.1752C30.9714 16.0331 31.3294 15.8103 31.6302 15.5215C31.931 15.2325 32.1681 14.8839 32.3259 14.4977C32.4838 14.1117 32.5591 13.6969 32.5469 13.28Z" fill="white"/>
<path d="M38.6428 13.5453C38.6373 12.1605 39.0428 10.8051 39.8082 9.65095C40.5736 8.49682 41.6642 7.59575 42.9421 7.06202C44.22 6.52815 45.6274 6.38562 46.9864 6.65242C48.3453 6.91922 49.5945 7.58322 50.5757 8.56055C51.5569 9.53775 52.226 10.7843 52.4982 12.1421C52.7705 13.5 52.6336 14.9081 52.1049 16.1881C51.5762 17.468 50.6796 18.5624 49.5285 19.3323C48.3773 20.1023 47.0237 20.5133 45.6388 20.5133C44.7196 20.5239 43.8073 20.3509 42.9557 20.0048C42.104 19.6587 41.3298 19.1463 40.6785 18.4976C40.027 17.8488 39.5116 17.0767 39.1621 16.2264C38.8125 15.3761 38.636 14.4647 38.6428 13.5453ZM48.6748 13.5453C48.6582 12.9484 48.4661 12.3696 48.1225 11.8812C47.7788 11.3929 47.2988 11.0167 46.7425 10.7997C46.1861 10.5827 45.5781 10.5344 44.9946 10.6611C44.411 10.7877 43.8777 11.0835 43.4613 11.5116C43.045 11.9396 42.764 12.4809 42.6536 13.0679C42.5432 13.6547 42.6082 14.2611 42.8406 14.8112C43.073 15.3613 43.4624 15.8307 43.96 16.1607C44.4577 16.4907 45.0416 16.6667 45.6388 16.6667C46.0477 16.6776 46.4545 16.6036 46.8334 16.4495C47.2125 16.2953 47.5554 16.0644 47.8406 15.7712C48.1258 15.4779 48.3473 15.1287 48.4908 14.7456C48.6344 14.3625 48.697 13.9539 48.6748 13.5453Z" fill="white"/>
<path d="M54.4814 3.40798C54.4814 2.93805 54.6208 2.47868 54.8818 2.08796C55.1429 1.69723 55.5141 1.39268 55.9482 1.21285C56.3824 1.03301 56.8601 0.985958 57.321 1.07764C57.7818 1.16932 58.2053 1.39561 58.5376 1.72791C58.8698 2.06019 59.0961 2.48355 59.1878 2.94445C59.2794 3.40535 59.2324 3.88308 59.0526 4.31724C58.8728 4.7514 58.5682 5.12248 58.1774 5.38358C57.7868 5.64465 57.3274 5.78399 56.8574 5.78399C56.2293 5.77772 55.6285 5.52545 55.1842 5.08116C54.7401 4.63692 54.4877 4.0362 54.4814 3.40798ZM54.8814 6.94532H58.8428V20.1453H54.8761L54.8814 6.94532Z" fill="white"/>
<path d="M75.9416 13.5453C75.9873 14.4177 75.8602 15.2905 75.5674 16.1136C75.2748 16.9367 74.8222 17.6937 74.2358 18.3413C73.6496 18.9888 72.9409 19.5141 72.1509 19.8869C71.3608 20.2596 70.5049 20.4725 69.6322 20.5133C68.8984 20.5533 68.1649 20.4296 67.4848 20.1511C66.8046 19.8724 66.1952 19.446 65.7002 18.9027V25.424H61.7402V6.94535H65.7002V8.18535C66.1953 7.64242 66.805 7.21628 67.485 6.93802C68.1652 6.65962 68.8985 6.53602 69.6322 6.57602C70.505 6.61668 71.3612 6.82948 72.1514 7.20228C72.9417 7.57508 73.6504 8.10042 74.2368 8.74815C74.8232 9.39588 75.2757 10.1532 75.5682 10.9765C75.8608 11.7997 75.9877 12.6728 75.9416 13.5453ZM71.9816 13.5453C71.9661 12.9276 71.7688 12.3281 71.4142 11.8219C71.0597 11.3157 70.5638 10.9253 69.9886 10.6997C69.4133 10.474 68.7842 10.4229 68.1801 10.5531C67.576 10.6831 67.0237 10.9884 66.5922 11.4308C66.1608 11.8733 65.8694 12.4331 65.7546 13.0404C65.6398 13.6476 65.7066 14.2751 65.9468 14.8445C66.1868 15.414 66.5896 15.8999 67.1045 16.2416C67.6194 16.5832 68.2236 16.7655 68.8416 16.7653C69.2658 16.7843 69.6893 16.7132 70.0842 16.5569C70.479 16.4008 70.8365 16.1628 71.1329 15.8588C71.4294 15.5547 71.6582 15.1915 71.8045 14.7928C71.9508 14.3941 72.0112 13.9689 71.9816 13.5453Z" fill="white"/>
<path d="M88.1614 16.184C88.1614 19.22 85.5228 20.5133 82.6721 20.5133C81.5201 20.6176 80.3637 20.3741 79.3518 19.814C78.34 19.254 77.5194 18.4033 76.9961 17.372L80.4268 15.4187C80.5656 15.8953 80.8637 16.3101 81.2713 16.5935C81.6788 16.8769 82.1721 17.012 82.6668 16.976C83.6161 16.976 84.0921 16.6853 84.0921 16.1587C84.0921 14.7053 77.5974 15.472 77.5974 10.9053C77.5974 8.02668 80.0268 6.57601 82.7721 6.57601C83.8041 6.54334 84.8254 6.78814 85.7308 7.28481C86.6361 7.78161 87.3921 8.51201 87.9188 9.40001L84.5401 11.2213C84.3921 10.8756 84.1454 10.5811 83.8308 10.3745C83.5161 10.168 83.1481 10.0587 82.7721 10.06C82.0854 10.06 81.6628 10.3267 81.6628 10.7987C81.6681 12.304 88.1614 11.3 88.1614 16.184Z" fill="white"/>
<path d="M102.627 6.94534V20.1453H98.6666V18.904C98.2093 19.4517 97.6293 19.8833 96.9733 20.1633C96.3173 20.4433 95.6053 20.5637 94.8933 20.5147C92.2266 20.5147 89.96 18.6147 89.96 15.048V6.94534H93.92V14.468C93.8866 14.7824 93.9226 15.1003 94.0253 15.3993C94.1266 15.6985 94.2933 15.9719 94.512 16.2003C94.7306 16.4287 94.996 16.6067 95.2906 16.722C95.584 16.8373 95.9 16.8872 96.216 16.868C97.668 16.868 98.6706 16.024 98.6706 14.1493V6.94934L102.627 6.94534Z" fill="white"/>
<path d="M125.333 12.04V20.144H121.373V12.3827C121.373 11.0627 120.74 10.2187 119.473 10.2187C118.153 10.2187 117.413 11.1427 117.413 12.7V20.144H113.455V12.3827C113.455 11.0627 112.821 10.2187 111.553 10.2187C110.233 10.2187 109.495 11.1427 109.495 12.7V20.144H105.535V6.94401H109.495V8.15734C109.905 7.61907 110.444 7.19214 111.061 6.91574C111.68 6.63921 112.357 6.52201 113.032 6.57467C113.709 6.54147 114.384 6.68454 114.991 6.98974C115.596 7.29481 116.112 7.75187 116.489 8.31601C116.928 7.72574 117.509 7.25641 118.179 6.95187C118.848 6.64734 119.584 6.51761 120.317 6.57467C123.348 6.57601 125.333 8.74001 125.333 12.04Z" fill="white"/>
<path d="M128.683 6.864C130.305 6.864 131.621 5.54826 131.621 3.92533C131.621 2.30234 130.305 0.986664 128.683 0.986664C127.06 0.986664 125.744 2.30234 125.744 3.92533C125.744 5.54826 127.06 6.864 128.683 6.864Z" fill="white"/>
</g>
</svg>
