<svg width="37" height="36" viewBox="0 0 37 36" fill="none" xmlns="http://www.w3.org/2000/svg">
<path fill-rule="evenodd" clip-rule="evenodd" d="M10.2532 18.3751C10.0124 19.0501 9.62548 19.6637 9.12012 20.172H9.12277C8.54136 20.7557 7.82203 21.1832 7.03141 21.4149C6.24079 21.6465 5.40448 21.6749 4.59999 21.4975C3.79548 21.3199 3.04881 20.9421 2.42917 20.3991C1.80953 19.8561 1.33696 19.1656 1.05527 18.3913C0.773572 17.6172 0.691852 16.7844 0.817679 15.9701C0.943519 15.156 1.27283 14.3867 1.77511 13.7337C2.27739 13.0807 2.93639 12.5649 3.69103 12.2344C4.44567 11.9039 5.27155 11.7691 6.09212 11.8427L6.06812 11.8187C6.90792 11.8896 7.75307 11.7763 8.54459 11.4868C9.33611 11.1974 10.0549 10.7387 10.6509 10.1428C11.2468 9.5468 11.7055 8.82799 11.9949 8.03647C12.2844 7.24495 12.3977 6.39979 12.3268 5.55999L12.3508 5.58399C12.2567 4.5797 12.4747 3.57082 12.9751 2.69495C13.4753 1.81908 14.2336 1.11886 15.1465 0.689763C16.0593 0.26067 17.0824 0.123577 18.076 0.297217C19.0696 0.470843 19.9856 0.946737 20.6988 1.65999C21.412 2.37324 21.888 3.28914 22.0616 4.28278C22.2352 5.27642 22.0981 6.29942 21.6691 7.2123C21.2399 8.12516 20.5397 8.88347 19.6639 9.38378C18.788 9.8841 17.7791 10.1021 16.7748 10.008L16.8001 10.032C15.9601 9.96068 15.1147 10.0736 14.3228 10.3629C13.5309 10.6522 12.8119 11.1108 12.2156 11.7068C11.6193 12.3028 11.1603 13.0217 10.8707 13.8135C10.5811 14.6052 10.4678 15.4507 10.5388 16.2907L10.5135 16.2667C10.5829 16.98 10.4941 17.7 10.2532 18.3751ZM18.0561 22.848L18.0308 22.824C18.7445 22.8959 19.4653 22.8083 20.1412 22.5675C20.8169 22.3267 21.4308 21.9388 21.9383 21.4317C22.4456 20.9247 22.8341 20.3111 23.0753 19.6355C23.3167 18.9599 23.4048 18.2392 23.3335 17.5253L23.3588 17.5493C23.2879 16.7095 23.4012 15.8644 23.6905 15.0728C23.98 14.2813 24.4388 13.5625 25.0347 12.9665C25.6307 12.3707 26.3495 11.9119 27.1409 11.6225C27.9325 11.333 28.7776 11.2198 29.6175 11.2907L29.5921 11.2667C30.5968 11.3611 31.606 11.1432 32.4823 10.6428C33.3587 10.1425 34.0592 9.38398 34.4885 8.47081C34.9179 7.55767 35.0551 6.53429 34.8815 5.54028C34.7079 4.54627 34.2319 3.63003 33.5183 2.91651C32.8048 2.203 31.8885 1.72695 30.8945 1.55332C29.9005 1.37968 28.8772 1.5169 27.964 1.94626C27.0508 2.3756 26.2924 3.0762 25.792 3.95248C25.2916 4.82875 25.0737 5.83804 25.1681 6.84268L25.1441 6.81735C25.2152 7.6572 25.1021 8.50245 24.8128 9.29408C24.5235 10.0857 24.0647 10.8046 23.4688 11.4007C22.8728 11.9965 22.1539 12.4553 21.3623 12.7447C20.5705 13.034 19.7253 13.1471 18.8855 13.076L18.9095 13.1013C18.1957 13.0295 17.4748 13.1171 16.7991 13.3579C16.1233 13.5985 15.5095 13.9865 15.002 14.4936C14.4945 15.0007 14.1061 15.6143 13.8648 16.2899C13.6236 16.9655 13.5355 17.6861 13.6068 18.4L13.5828 18.376C13.6535 19.2157 13.54 20.0608 13.2505 20.8523C12.9609 21.6436 12.5023 22.3624 11.9064 22.9583C11.3105 23.5541 10.5918 24.0128 9.80034 24.3024C9.00892 24.5919 8.16387 24.7053 7.32412 24.6347L7.34812 24.6587C6.34348 24.5643 5.33419 24.7821 4.45791 25.2825C3.58164 25.7829 2.88104 26.5413 2.4517 27.4545C2.02234 28.3677 1.88511 29.3911 2.05875 30.3851C2.23239 31.3791 2.70844 32.2953 3.42195 33.0088C4.13547 33.7224 5.05171 34.1984 6.04572 34.372C7.03974 34.5456 8.06311 34.4084 8.97627 33.9791C9.88942 33.5497 10.6479 32.8492 11.1483 31.9729C11.6487 31.0965 11.8665 30.0873 11.7721 29.0827L11.7975 29.1067C11.7265 28.2668 11.8399 27.4217 12.1293 26.6301C12.4187 25.8387 12.8775 25.1199 13.4733 24.5239C14.0693 23.928 14.7881 23.4692 15.5796 23.1799C16.3712 22.8904 17.2163 22.7771 18.0561 22.848ZM27.8921 15.828C27.3868 16.3364 26.9998 16.95 26.7588 17.6249C26.5177 18.3 26.4285 19.0199 26.4974 19.7333L26.4734 19.7093C26.5444 20.5492 26.431 21.3943 26.1416 22.1859C25.8521 22.9773 25.3934 23.6961 24.7976 24.2921C24.2016 24.888 23.4828 25.3468 22.6912 25.6361C21.8997 25.9256 21.0545 26.0389 20.2148 25.968L20.2388 25.992C19.2342 25.8985 18.2253 26.1171 17.3494 26.618C16.4737 27.1189 15.7737 27.8777 15.345 28.7911C14.9164 29.7044 14.7797 30.7276 14.9538 31.7215C15.1281 32.7152 15.6045 33.6311 16.3182 34.3441C17.032 35.0572 17.9482 35.5328 18.9421 35.706C19.9361 35.8793 20.9592 35.7417 21.8721 35.3123C22.785 34.8827 23.5432 34.1821 24.0433 33.3059C24.5434 32.4296 24.7612 31.4205 24.6668 30.416L24.6921 30.44C24.6212 29.6003 24.7344 28.7551 25.0238 27.9635C25.3133 27.172 25.7721 26.4532 26.368 25.8572C26.964 25.2613 27.6828 24.8025 28.4742 24.5132C29.2658 24.2237 30.1109 24.1104 30.9508 24.1813L30.9254 24.1573C31.746 24.2311 32.572 24.0965 33.3268 23.7661C34.0814 23.4357 34.7406 22.9201 35.243 22.2672C35.7454 21.6143 36.075 20.8449 36.2009 20.0308C36.3269 19.2165 36.2453 18.3837 35.9637 17.6093C35.6821 16.8351 35.2096 16.1444 34.59 15.6013C33.9704 15.0583 33.2237 14.6804 32.4192 14.5028C31.6146 14.3252 30.7782 14.3535 29.9876 14.5851C29.1969 14.8168 28.4776 15.2443 27.8961 15.828H27.8921Z" fill="white"/>
</svg>
