<svg width="187" height="40" viewBox="0 0 187 40" fill="none" xmlns="http://www.w3.org/2000/svg">
<path fill-rule="evenodd" clip-rule="evenodd" d="M12.2531 20.3751C12.0123 21.0501 11.6254 21.6637 11.12 22.172H11.1227C10.5412 22.7557 9.8219 23.1832 9.03129 23.4149C8.24066 23.6465 7.40436 23.6749 6.59986 23.4975C5.79536 23.3199 5.04869 22.9421 4.42905 22.3991C3.80941 21.8561 3.33684 21.1656 3.05514 20.3913C2.77345 19.6172 2.69173 18.7844 2.81756 17.9701C2.9434 17.156 3.2727 16.3867 3.77498 15.7337C4.27726 15.0807 4.93626 14.5649 5.6909 14.2344C6.44554 13.9039 7.27142 13.7691 8.092 13.8427L8.068 13.8187C8.9078 13.8896 9.75294 13.7763 10.5445 13.4868C11.336 13.1974 12.0548 12.7387 12.6507 12.1428C13.2467 11.5468 13.7053 10.828 13.9948 10.0365C14.2843 9.24495 14.3976 8.39979 14.3267 7.55999L14.3507 7.58399C14.2565 6.5797 14.4745 5.57082 14.9749 4.69495C15.4752 3.81908 16.2335 3.11886 17.1464 2.68976C18.0592 2.26067 19.0823 2.12358 20.0759 2.29722C21.0695 2.47084 21.9855 2.94674 22.6987 3.65999C23.4119 4.37324 23.8879 5.28914 24.0615 6.28278C24.2351 7.27642 24.098 8.29942 23.6689 9.2123C23.2397 10.1252 22.5396 10.8835 21.6637 11.3838C20.7879 11.8841 19.7789 12.1021 18.7747 12.008L18.8 12.032C17.96 11.9607 17.1145 12.0736 16.3227 12.3629C15.5308 12.6522 14.8117 13.1108 14.2155 13.7068C13.6192 14.3028 13.1602 15.0217 12.8706 15.8135C12.581 16.6052 12.4677 17.4507 12.5387 18.2907L12.5133 18.2667C12.5828 18.98 12.494 19.7 12.2531 20.3751ZM20.056 24.848L20.0307 24.824C20.7444 24.8959 21.4652 24.8083 22.1411 24.5675C22.8168 24.3267 23.4307 23.9388 23.9381 23.4317C24.4455 22.9247 24.834 22.3111 25.0752 21.6355C25.3165 20.9599 25.4047 20.2392 25.3333 19.5253L25.3587 19.5493C25.2877 18.7095 25.4011 17.8644 25.6904 17.0728C25.9799 16.2813 26.4387 15.5625 27.0345 14.9665C27.6305 14.3707 28.3493 13.9119 29.1408 13.6225C29.9324 13.333 30.7775 13.2198 31.6173 13.2907L31.592 13.2667C32.5967 13.3611 33.6059 13.1432 34.4821 12.6428C35.3585 12.1425 36.0591 11.384 36.4884 10.4708C36.9177 9.55767 37.0549 8.53429 36.8813 7.54028C36.7077 6.54627 36.2317 5.63003 35.5181 4.91651C34.8047 4.203 33.8884 3.72695 32.8944 3.55332C31.9004 3.37968 30.8771 3.5169 29.9639 3.94626C29.0507 4.3756 28.2923 5.0762 27.7919 5.95248C27.2915 6.82875 27.0736 7.83804 27.168 8.84268L27.144 8.81735C27.2151 9.6572 27.102 10.5025 26.8127 11.2941C26.5233 12.0857 26.0645 12.8046 25.4687 13.4007C24.8727 13.9965 24.1537 14.4553 23.3621 14.7447C22.5704 15.034 21.7252 15.1471 20.8853 15.076L20.9093 15.1013C20.1956 15.0295 19.4747 15.1171 18.7989 15.3579C18.1232 15.5985 17.5093 15.9865 17.0019 16.4936C16.4944 17.0007 16.106 17.6143 15.8647 18.2899C15.6235 18.9655 15.5353 19.6861 15.6067 20.4L15.5827 20.376C15.6533 21.2157 15.5399 22.0608 15.2504 22.8523C14.9608 23.6436 14.5021 24.3624 13.9063 24.9583C13.3103 25.5541 12.5916 26.0128 11.8002 26.3024C11.0088 26.5919 10.1637 26.7053 9.324 26.6347L9.348 26.6587C8.34336 26.5643 7.33407 26.7821 6.45779 27.2825C5.58152 27.7829 4.88092 28.5413 4.45158 29.4545C4.02222 30.3677 3.88499 31.3911 4.05863 32.3851C4.23227 33.3791 4.70832 34.2953 5.42183 35.0088C6.13535 35.7224 7.05159 36.1984 8.0456 36.372C9.03962 36.5456 10.063 36.4084 10.9761 35.9791C11.8893 35.5497 12.6478 34.8492 13.1481 33.9729C13.6485 33.0965 13.8664 32.0873 13.772 31.0827L13.7973 31.1067C13.7264 30.2668 13.8397 29.4217 14.1292 28.6301C14.4185 27.8387 14.8773 27.1199 15.4732 26.5239C16.0692 25.928 16.788 25.4692 17.5795 25.1799C18.3711 24.8904 19.2161 24.7771 20.056 24.848ZM29.892 17.828C29.3867 18.3364 28.9997 18.95 28.7587 19.6249C28.5176 20.3 28.4284 21.0199 28.4973 21.7333L28.4733 21.7093C28.5443 22.5492 28.4309 23.3943 28.1415 24.1859C27.852 24.9773 27.3933 25.6961 26.7975 26.2921C26.2015 26.888 25.4827 27.3468 24.691 27.6361C23.8996 27.9256 23.0544 28.0389 22.2147 27.968L22.2387 27.992C21.2341 27.8985 20.2252 28.1171 19.3493 28.618C18.4736 29.1189 17.7736 29.8777 17.3449 30.7911C16.9163 31.7044 16.7796 32.7276 16.9537 33.7215C17.128 34.7152 17.6044 35.6311 18.3181 36.3441C19.0319 37.0572 19.9481 37.5328 20.942 37.706C21.936 37.8793 22.9591 37.7417 23.872 37.3123C24.7849 36.8827 25.5431 36.1821 26.0432 35.3059C26.5433 34.4296 26.7611 33.4205 26.6667 32.416L26.692 32.44C26.621 31.6003 26.7343 30.7551 27.0237 29.9635C27.3132 29.172 27.772 28.4532 28.3679 27.8572C28.9639 27.2613 29.6827 26.8025 30.4741 26.5132C31.2657 26.2237 32.1108 26.1104 32.9507 26.1813L32.9253 26.1573C33.7459 26.2311 34.5719 26.0965 35.3267 25.7661C36.0813 25.4357 36.7405 24.9201 37.2429 24.2672C37.7453 23.6143 38.0749 22.8449 38.2008 22.0308C38.3268 21.2165 38.2452 20.3837 37.9636 19.6093C37.682 18.8351 37.2095 18.1444 36.5899 17.6013C35.9703 17.0583 35.2236 16.6804 34.4191 16.5028C33.6145 16.3252 32.7781 16.3535 31.9875 16.5851C31.1968 16.8168 30.4775 17.2443 29.896 17.828H29.892Z" fill="white"/>
<g opacity="0.7">
<path d="M52.4227 8.87332H56.3827V28.144H52.4227V8.87332Z" fill="white"/>
<path d="M58.6253 21.5453C58.6199 20.1605 59.0255 18.8051 59.7908 17.6509C60.5561 16.4968 61.6468 15.5957 62.9247 15.062C64.2025 14.5281 65.61 14.3856 66.9689 14.6524C68.3279 14.9192 69.5771 15.5832 70.5583 16.5605C71.5395 17.5377 72.2085 18.7843 72.4808 20.1421C72.7531 21.5 72.6161 22.9081 72.0875 24.1881C71.5588 25.468 70.6621 26.5624 69.5111 27.3323C68.3599 28.1023 67.0063 28.5133 65.6213 28.5133C64.7021 28.5239 63.79 28.3509 62.9383 28.0048C62.0865 27.6587 61.3124 27.1463 60.6611 26.4976C60.0096 25.8488 59.4941 25.0767 59.1447 24.2264C58.7951 23.3761 58.6185 22.4647 58.6253 21.5453ZM68.6573 21.5453C68.6408 20.9484 68.4487 20.3696 68.1051 19.8812C67.7613 19.3929 67.2813 19.0167 66.7251 18.7997C66.1687 18.5827 65.5608 18.5344 64.9772 18.6611C64.3936 18.7877 63.8603 19.0835 63.4439 19.5116C63.0276 19.9396 62.7465 20.4809 62.6363 21.0679C62.5259 21.6547 62.5908 22.2611 62.8232 22.8112C63.0556 23.3613 63.4449 23.8307 63.9425 24.1607C64.4403 24.4907 65.0243 24.6667 65.6213 24.6667C66.0303 24.6776 66.4371 24.6036 66.8161 24.4495C67.1951 24.2953 67.538 24.0644 67.8232 23.7712C68.1084 23.4779 68.3299 23.1287 68.4733 22.7456C68.6169 22.3625 68.6796 21.9539 68.6573 21.5453Z" fill="white"/>
<path d="M88.4 14.9453V27.4787C88.4 31.9133 84.9414 33.788 81.4307 33.788C80.1947 33.8805 78.957 33.6308 77.8534 33.0664C76.7499 32.5019 75.8231 31.6444 75.1747 30.588L78.5534 28.6347C78.8259 29.1853 79.2602 29.6396 79.7979 29.9368C80.3358 30.2339 80.9515 30.3597 81.5627 30.2973C81.9534 30.3515 82.3512 30.3171 82.7268 30.1967C83.1023 30.0763 83.446 29.8729 83.7324 29.6019C84.0188 29.3307 84.2406 28.9987 84.3814 28.6301C84.522 28.2617 84.578 27.8664 84.5454 27.4733V26.2667C84.0816 26.834 83.4915 27.2848 82.822 27.5828C82.1526 27.8808 81.4227 28.0177 80.6907 27.9827C78.9491 27.9277 77.2972 27.1973 76.0847 25.9459C74.8722 24.6945 74.1942 23.0204 74.1942 21.278C74.1942 19.5356 74.8722 17.8615 76.0847 16.6101C77.2972 15.3587 78.9491 14.6283 80.6907 14.5733C81.4227 14.5383 82.1526 14.6752 82.822 14.9732C83.4915 15.2712 84.0816 15.722 84.5454 16.2893V14.9427L88.4 14.9453ZM84.5467 21.28C84.5734 20.6419 84.4083 20.0103 84.073 19.4667C83.7376 18.9229 83.2472 18.4921 82.665 18.2296C82.0827 17.9669 81.4352 17.8847 80.8058 17.9932C80.1763 18.1017 79.5938 18.3961 79.133 18.8387C78.6723 19.2811 78.3546 19.8512 78.2206 20.4757C78.0867 21.1003 78.1427 21.7507 78.3816 22.3431C78.6204 22.9355 79.0311 23.4429 79.5607 23.8C80.0903 24.1571 80.7147 24.3475 81.3534 24.3467C81.7695 24.3757 82.187 24.3173 82.5791 24.1752C82.9712 24.0331 83.3292 23.8103 83.63 23.5215C83.9308 23.2325 84.1679 22.8839 84.3258 22.4977C84.4836 22.1117 84.559 21.6969 84.5467 21.28Z" fill="white"/>
<path d="M90.6427 21.5453C90.6372 20.1605 91.0427 18.8051 91.8081 17.6509C92.5735 16.4968 93.6641 15.5957 94.942 15.062C96.2199 14.5281 97.6273 14.3856 98.9863 14.6524C100.345 14.9192 101.594 15.5832 102.576 16.5605C103.557 17.5377 104.226 18.7843 104.498 20.1421C104.77 21.5 104.633 22.9081 104.105 24.1881C103.576 25.468 102.679 26.5624 101.528 27.3323C100.377 28.1023 99.0236 28.5133 97.6387 28.5133C96.7195 28.5239 95.8072 28.3509 94.9556 28.0048C94.1039 27.6587 93.3297 27.1463 92.6784 26.4976C92.0269 25.8488 91.5115 25.0767 91.162 24.2264C90.8124 23.3761 90.6359 22.4647 90.6427 21.5453ZM100.675 21.5453C100.658 20.9484 100.466 20.3696 100.122 19.8812C99.7787 19.3929 99.2987 19.0167 98.7424 18.7997C98.186 18.5827 97.578 18.5344 96.9945 18.6611C96.4109 18.7877 95.8776 19.0835 95.4612 19.5116C95.0449 19.9396 94.7639 20.4809 94.6535 21.0679C94.5431 21.6547 94.6081 22.2611 94.8405 22.8112C95.0729 23.3613 95.4623 23.8307 95.9599 24.1607C96.4576 24.4907 97.0415 24.6667 97.6387 24.6667C98.0476 24.6776 98.4544 24.6036 98.8333 24.4495C99.2124 24.2953 99.5553 24.0644 99.8405 23.7712C100.126 23.4779 100.347 23.1287 100.491 22.7456C100.634 22.3625 100.697 21.9539 100.675 21.5453Z" fill="white"/>
<path d="M106.481 11.408C106.481 10.9381 106.621 10.4787 106.882 10.088C107.143 9.69723 107.514 9.39268 107.948 9.21285C108.382 9.03301 108.86 8.98596 109.321 9.07764C109.782 9.16932 110.205 9.39561 110.537 9.72791C110.87 10.0602 111.096 10.4835 111.188 10.9445C111.279 11.4053 111.232 11.8831 111.053 12.3172C110.873 12.7514 110.568 13.1225 110.177 13.3836C109.787 13.6447 109.327 13.784 108.857 13.784C108.229 13.7777 107.628 13.5255 107.184 13.0812C106.74 12.6369 106.488 12.0362 106.481 11.408ZM106.881 14.9453H110.843V28.1453H106.876L106.881 14.9453Z" fill="white"/>
<path d="M127.941 21.5453C127.987 22.4177 127.86 23.2905 127.567 24.1136C127.275 24.9367 126.822 25.6937 126.236 26.3413C125.649 26.9888 124.941 27.5141 124.151 27.8869C123.361 28.2596 122.505 28.4725 121.632 28.5133C120.898 28.5533 120.165 28.4296 119.485 28.1511C118.804 27.8724 118.195 27.446 117.7 26.9027V33.424H113.74V14.9453H117.7V16.1853C118.195 15.6424 118.805 15.2163 119.485 14.938C120.165 14.6596 120.898 14.536 121.632 14.576C122.505 14.6167 123.361 14.8295 124.151 15.2023C124.941 15.5751 125.65 16.1004 126.237 16.7481C126.823 17.3959 127.275 18.1532 127.568 18.9765C127.861 19.7997 127.987 20.6728 127.941 21.5453ZM123.981 21.5453C123.966 20.9276 123.769 20.3281 123.414 19.8219C123.059 19.3157 122.564 18.9253 121.988 18.6997C121.413 18.474 120.784 18.4229 120.18 18.5531C119.576 18.6831 119.023 18.9884 118.592 19.4308C118.161 19.8733 117.869 20.4331 117.754 21.0404C117.64 21.6476 117.706 22.2751 117.947 22.8445C118.187 23.414 118.589 23.8999 119.104 24.2416C119.619 24.5832 120.223 24.7655 120.841 24.7653C121.266 24.7843 121.689 24.7132 122.084 24.5569C122.479 24.4008 122.836 24.1628 123.133 23.8588C123.429 23.5547 123.658 23.1915 123.804 22.7928C123.951 22.3941 124.011 21.9689 123.981 21.5453Z" fill="white"/>
<path d="M140.161 24.184C140.161 27.22 137.523 28.5133 134.672 28.5133C133.52 28.6176 132.364 28.3741 131.352 27.814C130.34 27.254 129.519 26.4033 128.996 25.372L132.427 23.4187C132.565 23.8953 132.864 24.3101 133.271 24.5935C133.679 24.8769 134.172 25.012 134.667 24.976C135.616 24.976 136.092 24.6853 136.092 24.1587C136.092 22.7053 129.597 23.472 129.597 18.9053C129.597 16.0267 132.027 14.576 134.772 14.576C135.804 14.5433 136.825 14.7881 137.731 15.2848C138.636 15.7816 139.392 16.512 139.919 17.4L136.54 19.2213C136.392 18.8756 136.145 18.5811 135.831 18.3745C135.516 18.168 135.148 18.0587 134.772 18.06C134.085 18.06 133.663 18.3267 133.663 18.7987C133.668 20.304 140.161 19.3 140.161 24.184Z" fill="white"/>
<path d="M154.627 14.9453V28.1453H150.667V26.904C150.209 27.4517 149.629 27.8833 148.973 28.1633C148.317 28.4433 147.605 28.5637 146.893 28.5147C144.227 28.5147 141.96 26.6147 141.96 23.048V14.9453H145.92V22.468C145.887 22.7824 145.923 23.1003 146.025 23.3993C146.127 23.6985 146.293 23.9719 146.512 24.2003C146.731 24.4287 146.996 24.6067 147.291 24.722C147.584 24.8373 147.9 24.8872 148.216 24.868C149.668 24.868 150.671 24.024 150.671 22.1493V14.9493L154.627 14.9453Z" fill="white"/>
<path d="M177.333 20.04V28.144H173.373V20.3827C173.373 19.0627 172.74 18.2187 171.473 18.2187C170.153 18.2187 169.413 19.1427 169.413 20.7V28.144H165.455V20.3827C165.455 19.0627 164.821 18.2187 163.553 18.2187C162.233 18.2187 161.495 19.1427 161.495 20.7V28.144H157.535V14.944H161.495V16.1573C161.905 15.6191 162.444 15.1921 163.061 14.9157C163.68 14.6392 164.357 14.522 165.032 14.5747C165.709 14.5415 166.384 14.6845 166.991 14.9897C167.596 15.2948 168.112 15.7519 168.489 16.316C168.928 15.7257 169.509 15.2564 170.179 14.9519C170.848 14.6473 171.584 14.5176 172.317 14.5747C175.348 14.576 177.333 16.74 177.333 20.04Z" fill="white"/>
<path d="M180.683 14.864C182.305 14.864 183.621 13.5483 183.621 11.9253C183.621 10.3023 182.305 8.98666 180.683 8.98666C179.06 8.98666 177.744 10.3023 177.744 11.9253C177.744 13.5483 179.06 14.864 180.683 14.864Z" fill="white"/>
</g>
</svg>
