<svg width="24" height="24" viewBox="0 0 24 24" fill="none" xmlns="http://www.w3.org/2000/svg">
<path fill-rule="evenodd" clip-rule="evenodd" d="M20.7811 7.18501L12 11.9747L3.21888 7.18501C3.49815 6.26615 4.06462 5.461 4.83513 4.88776C5.60565 4.31452 6.53964 4.00338 7.5 4H16.5C17.4604 4.00338 18.3943 4.31452 19.1649 4.88776C19.9354 5.461 20.5018 6.26615 20.7811 7.18501ZM12 13.9C12.1506 13.9 12.2988 13.8622 12.4311 13.7901L21 9.11614V15.7C20.9986 16.893 20.524 18.0368 19.6804 18.8804C18.8368 19.724 17.693 20.1986 16.5 20.2H7.5C6.30696 20.1986 5.16318 19.724 4.31957 18.8804C3.47596 18.0368 3.00141 16.893 3 15.7V9.11614L11.5689 13.7901C11.7012 13.8622 11.8494 13.9 12 13.9Z" fill="white"/>
</svg>
